<svg width="151" height="129" viewBox="0 0 151 129" fill="none" xmlns="http://www.w3.org/2000/svg">
<rect width="151" height="129" fill="#E0D24E"/>
<path d="M72.3068 24.8545C75.2688 23.7152 78.5481 23.7152 81.51 24.8545L102.711 33.0066C105.185 33.9594 106.817 36.3393 106.817 38.9883V67.2988C106.817 68.5939 106.425 69.8588 105.692 70.9266C104.959 71.9944 103.919 72.8151 102.711 73.2805L81.51 81.4369C78.5481 82.5762 75.2688 82.5762 72.3068 81.4369L51.1103 73.2805C49.9008 72.8157 48.8606 71.9954 48.1268 70.9275C47.3931 69.8596 47.0002 68.5944 47 67.2988V38.9883C47.0002 37.6927 47.3931 36.4275 48.1268 35.3596C48.8606 34.2917 49.9008 33.4714 51.1103 33.0066L72.3068 24.8545V24.8545ZM79.9762 28.8408C78.0015 28.0813 75.8153 28.0813 73.8407 28.8408L67.9273 31.1181L91.8113 40.159L100.134 36.5957L79.9762 28.8408V28.8408ZM102.544 40.206L79.0447 50.2809V77.7454C79.3609 77.6642 79.6685 77.5659 79.9762 77.4463L101.177 69.2941C101.58 69.1386 101.926 68.8648 102.17 68.5086C102.414 68.1524 102.545 67.7306 102.544 67.2988V40.2103V40.206ZM74.7721 77.7454V50.2809L51.2726 40.2103V67.2988C51.2722 67.7306 51.4026 68.1524 51.6467 68.5086C51.8907 68.8648 52.237 69.1386 52.6399 69.2941L73.8407 77.4463C74.1483 77.5659 74.4559 77.6642 74.7721 77.7454ZM53.6824 36.5957L76.9084 46.5509L86.1544 42.5859L61.9414 33.4168L53.6824 36.5957Z" fill="black"/>
<path d="M45.63 107.7C45.63 111.462 48.384 114.108 52.002 114.108C54.792 114.108 57.06 112.632 57.906 110.04H55.008C54.414 111.264 53.334 111.858 51.984 111.858C49.788 111.858 48.222 110.238 48.222 107.7C48.222 105.144 49.788 103.542 51.984 103.542C53.334 103.542 54.414 104.136 55.008 105.342H57.906C57.06 102.768 54.792 101.274 52.002 101.274C48.384 101.274 45.63 103.938 45.63 107.7ZM59.4104 108.978C59.4104 112.092 61.4264 114.162 63.9464 114.162C65.5304 114.162 66.6644 113.406 67.2584 112.542V114H69.7964V104.028H67.2584V105.45C66.6644 104.622 65.5664 103.866 63.9644 103.866C61.4264 103.866 59.4104 105.864 59.4104 108.978ZM67.2584 109.014C67.2584 110.904 65.9984 111.948 64.6124 111.948C63.2624 111.948 61.9844 110.868 61.9844 108.978C61.9844 107.088 63.2624 106.08 64.6124 106.08C65.9984 106.08 67.2584 107.124 67.2584 109.014ZM74.7776 109.032C74.7776 107.106 75.6776 106.53 77.1716 106.53H77.8376V103.884C76.4516 103.884 75.4076 104.55 74.7776 105.576V104.028H72.2576V114H74.7776V109.032ZM79.931 110.904C79.931 113.19 81.209 114 83.117 114H84.701V111.876H83.531C82.739 111.876 82.469 111.588 82.469 110.922V106.098H84.701V104.028H82.469V101.562H79.931V104.028H78.743V106.098H79.931V110.904ZM96.1435 109.014C96.1435 105.864 93.8935 103.866 91.0135 103.866C88.1335 103.866 85.8835 105.864 85.8835 109.014C85.8835 112.146 88.0615 114.162 90.9415 114.162C93.8395 114.162 96.1435 112.146 96.1435 109.014ZM88.4395 109.014C88.4395 107.016 89.6455 106.062 90.9775 106.062C92.3095 106.062 93.5515 107.016 93.5515 109.014C93.5515 110.994 92.2735 111.966 90.9415 111.966C89.5915 111.966 88.4395 110.994 88.4395 109.014ZM88.9435 101.4V103.2L93.0835 101.31V99.258L88.9435 101.4ZM104.976 114H107.496V108.15C107.496 105.396 105.84 103.884 103.518 103.884C102.24 103.884 101.16 104.424 100.512 105.27V104.028H97.992V114H100.512V108.492C100.512 106.89 101.394 106.026 102.762 106.026C104.094 106.026 104.976 106.89 104.976 108.492V114Z" fill="black"/>
<path fill-rule="evenodd" clip-rule="evenodd" d="M139 3H14V53H11V3V0H14H139H142V3V53H139V3ZM139 77V126H14V77H11V126V129H14H139H142V126V77H139Z" fill="black"/>
<path d="M145 49.9955C145 50.1236 144.979 50.2502 144.938 50.3659C144.897 50.4816 144.837 50.5835 144.762 50.6642L140.905 54.805C140.79 54.9311 140.646 55 140.497 55C140.348 55 140.204 54.9311 140.089 54.805L136.232 50.5185C136.101 50.373 136.018 50.1639 136.003 49.9372C135.987 49.7105 136.04 49.4848 136.149 49.3097C136.258 49.1346 136.415 49.0245 136.585 49.0036C136.754 48.9827 136.924 49.0527 137.055 49.1983L140.5 53.0304L143.946 49.3268C144.04 49.222 144.155 49.1554 144.277 49.1349C144.399 49.1145 144.522 49.141 144.633 49.2113C144.744 49.2817 144.838 49.3929 144.903 49.5319C144.968 49.6709 145.001 49.8318 145 49.9955Z" fill="black" stroke="black"/>
<path d="M17 81.0045C17.0003 80.8764 16.9791 80.7498 16.9379 80.6341C16.8968 80.5184 16.8367 80.4165 16.7621 80.3358L12.9053 76.195C12.7903 76.0689 12.6461 76 12.4972 76C12.3483 76 12.204 76.0689 12.089 76.195L8.23221 80.4815C8.10094 80.627 8.01839 80.8361 8.00272 81.0628C7.98705 81.2895 8.03954 81.5152 8.14865 81.6903C8.25776 81.8654 8.41454 81.9755 8.58451 81.9964C8.75449 82.0173 8.92372 81.9473 9.05499 81.8017L12.5004 77.9696L15.9458 81.6732C16.0401 81.778 16.155 81.8446 16.2769 81.8651C16.3987 81.8855 16.5224 81.859 16.6333 81.7887C16.7442 81.7183 16.8377 81.6071 16.9026 81.4681C16.9676 81.3291 17.0014 81.1682 17 81.0045Z" fill="black" stroke="black"/>
</svg>
