<svg width="151" height="129" viewBox="0 0 151 129" fill="none" xmlns="http://www.w3.org/2000/svg">
<rect width="151" height="129" fill="#E0D24E"/>
<path d="M37.63 107.7C37.63 111.462 40.384 114.108 44.002 114.108C46.792 114.108 49.06 112.632 49.906 110.04H47.008C46.414 111.264 45.334 111.858 43.984 111.858C41.788 111.858 40.222 110.238 40.222 107.7C40.222 105.144 41.788 103.542 43.984 103.542C45.334 103.542 46.414 104.136 47.008 105.342H49.906C49.06 102.768 46.792 101.274 44.002 101.274C40.384 101.274 37.63 103.938 37.63 107.7ZM52.0584 114H54.5784V108.492C54.5784 106.89 55.4604 106.026 56.8284 106.026C58.1604 106.026 59.0424 106.89 59.0424 108.492V114H61.5624V108.15C61.5624 105.396 59.9244 103.884 57.6744 103.884C56.3424 103.884 55.2264 104.424 54.5784 105.27V100.68H52.0584V114ZM63.3108 108.978C63.3108 112.092 65.3268 114.162 67.8468 114.162C69.4308 114.162 70.5648 113.406 71.1588 112.542V114H73.6968V104.028H71.1588V105.45C70.5648 104.622 69.4668 103.866 67.8648 103.866C65.3268 103.866 63.3108 105.864 63.3108 108.978ZM71.1588 109.014C71.1588 110.904 69.8988 111.948 68.5128 111.948C67.1628 111.948 65.8848 110.868 65.8848 108.978C65.8848 107.088 67.1628 106.08 68.5128 106.08C69.8988 106.08 71.1588 107.124 71.1588 109.014ZM76.554 110.904C76.554 113.19 77.832 114 79.74 114H81.324V111.876H80.154C79.362 111.876 79.092 111.588 79.092 110.922V106.098H81.324V104.028H79.092V101.562H76.554V104.028H75.366V106.098H76.554V110.904ZM82.4885 108.978C82.4885 112.092 84.5045 114.162 87.0245 114.162C88.6085 114.162 89.7425 113.406 90.3365 112.542V114H92.8745V104.028H90.3365V105.45C89.7425 104.622 88.6445 103.866 87.0425 103.866C84.5045 103.866 82.4885 105.864 82.4885 108.978ZM90.3365 109.014C90.3365 110.904 89.0765 111.948 87.6905 111.948C86.3405 111.948 85.0625 110.868 85.0625 108.978C85.0625 107.088 86.3405 106.08 87.6905 106.08C89.0765 106.08 90.3365 107.124 90.3365 109.014ZM97.8558 109.032C97.8558 107.106 98.7558 106.53 100.25 106.53H100.916V103.884C99.5298 103.884 98.4858 104.55 97.8558 105.576V104.028H95.3358V114H97.8558V109.032ZM105.133 109.032C105.133 107.106 106.033 106.53 107.527 106.53H108.193V103.884C106.807 103.884 105.763 104.55 105.133 105.576V104.028H102.613V114H105.133V109.032ZM109.242 108.978C109.242 112.092 111.258 114.162 113.778 114.162C115.362 114.162 116.496 113.406 117.09 112.542V114H119.628V104.028H117.09V105.45C116.496 104.622 115.398 103.866 113.796 103.866C111.258 103.866 109.242 105.864 109.242 108.978ZM117.09 109.014C117.09 110.904 115.83 111.948 114.444 111.948C113.094 111.948 111.816 110.868 111.816 108.978C111.816 107.088 113.094 106.08 114.444 106.08C115.83 106.08 117.09 107.124 117.09 109.014Z" fill="black"/>
<path fill-rule="evenodd" clip-rule="evenodd" d="M16 3H141V126H16V77H13V126V129H16H141H144V126V3V0H141H16H13V3V53H16V3Z" fill="black"/>
<path d="M19 49.9955C19.0003 50.1236 18.9791 50.2502 18.9379 50.3659C18.8968 50.4816 18.8367 50.5835 18.7621 50.6642L14.9053 54.805C14.7903 54.9311 14.6461 55 14.4972 55C14.3483 55 14.204 54.9311 14.089 54.805L10.2322 50.5185C10.1009 50.373 10.0184 50.1639 10.0027 49.9372C9.98705 49.7105 10.0395 49.4848 10.1486 49.3097C10.2578 49.1346 10.4145 49.0245 10.5845 49.0036C10.7545 48.9827 10.9237 49.0527 11.055 49.1983L14.5004 53.0304L17.9458 49.3268C18.0401 49.222 18.155 49.1554 18.2769 49.1349C18.3987 49.1145 18.5224 49.141 18.6333 49.2113C18.7442 49.2817 18.8377 49.3929 18.9026 49.5319C18.9676 49.6709 19.0014 49.8318 19 49.9955Z" fill="black" stroke="black"/>
<path d="M47.4167 81.0001C50.4082 81.0001 52.8333 78.575 52.8333 75.5834C52.8333 72.5919 50.4082 70.1667 47.4167 70.1667C44.4251 70.1667 42 72.5919 42 75.5834C42 78.575 44.4251 81.0001 47.4167 81.0001Z" stroke="black" stroke-width="3" stroke-linecap="round" stroke-linejoin="round"/>
<path d="M79.9167 81.0001C82.9082 81.0001 85.3333 78.575 85.3333 75.5834C85.3333 72.5919 82.9082 70.1667 79.9167 70.1667C76.9251 70.1667 74.5 72.5919 74.5 75.5834C74.5 78.575 76.9251 81.0001 79.9167 81.0001Z" stroke="black" stroke-width="3" stroke-linecap="round" stroke-linejoin="round"/>
<path d="M85.3333 78.2917H90.7499V62.0417C90.7499 58.4502 89.3232 55.0058 86.7837 52.4663C84.2441 49.9267 80.7997 48.5 77.2083 48.5H74.4999L78.5624 62.0417H90.7499M52.8333 78.2917H74.4999H52.8333Z" stroke="black" stroke-width="3" stroke-linecap="round" stroke-linejoin="round"/>
<path d="M66.375 78.2917V48.5H74.5" stroke="black" stroke-width="3" stroke-linecap="round" stroke-linejoin="round"/>
<path d="M42 75.5834V62.0417H66.375" stroke="black" stroke-width="3" stroke-linecap="round" stroke-linejoin="round"/>
<path d="M44.7083 62.0417V40.0139L107.542 29V36.3426" stroke="black" stroke-width="3" stroke-linecap="round" stroke-linejoin="round"/>
<path d="M55.5416 62.0417V51.2084L44.7083 45.7917" stroke="black" stroke-width="3" stroke-linecap="round" stroke-linejoin="round"/>
<mask id="path-12-inside-1" fill="white">
<path d="M105.78 39.5462L103.924 43.1158L110.434 44.2979L111.182 38.4966L108.988 38.0983C108.335 37.9793 107.673 38.0552 107.097 38.3151C106.522 38.575 106.061 39.0057 105.78 39.5462ZM102.986 44.9246L102.975 44.9424L102.407 44.9699L102.147 44.982C101.454 45.0168 100.809 45.2708 100.317 45.7035C99.8243 46.1362 99.5116 46.7228 99.4287 47.3699L99.0082 50.6342C98.9683 50.9436 99.0347 51.2525 99.1847 51.5211C99.686 50.5877 100.511 49.8582 101.534 49.4446C102.556 49.0311 103.719 48.9564 104.843 49.2321C105.968 49.5078 106.992 50.1185 107.759 50.9706C108.525 51.8226 108.991 52.8687 109.085 53.9481L117.587 55.4916C117.947 54.4936 118.655 53.6593 119.601 53.117C120.547 52.5748 121.679 52.3548 122.822 52.4909C123.966 52.627 125.057 53.1116 125.929 53.8701C126.8 54.6286 127.404 55.619 127.646 56.6886C127.862 56.478 127.999 56.2041 128.037 55.9048L128.339 53.5591C128.422 52.9197 128.276 52.257 127.923 51.674C127.571 51.0911 127.032 50.6206 126.391 50.3357L121.973 48.372L102.984 44.9242L102.986 44.9246ZM120.539 46.1325L118.525 41.3576C118.314 40.8567 117.969 40.4085 117.525 40.0593C117.081 39.7101 116.555 39.4727 116.001 39.3715L113.255 38.8731L112.508 44.6744L120.539 46.1325ZM130.111 56.2813C130.027 56.9301 129.746 57.5289 129.299 58.0065C128.853 58.484 128.261 58.8201 127.593 58.9747C127.281 60.076 126.557 61.0089 125.549 61.6082C124.541 62.2075 123.314 62.4344 122.085 62.2488C120.857 62.0632 119.706 61.477 118.837 60.5942C117.968 59.7113 117.437 58.5887 117.338 57.4254L108.836 55.8818C108.449 56.9568 107.659 57.8396 106.607 58.3737C105.556 58.9079 104.31 59.0589 103.091 58.8001C101.872 58.5413 100.758 57.8893 99.947 56.9598C99.1358 56.0302 98.6796 54.883 98.6593 53.7214C98.0612 53.337 97.5807 52.8061 97.2749 52.192C96.9692 51.5779 96.8511 50.9065 96.9347 50.2577L97.3552 46.9935C97.4875 45.9657 97.9676 45.0284 98.7258 44.3177C99.4839 43.607 100.481 43.1598 101.571 43.041L103.893 38.5763C104.361 37.6763 105.129 36.9591 106.088 36.5262C107.048 36.0933 108.149 35.9668 109.237 36.1645L116.248 37.4374C117.172 37.6051 118.05 38.0004 118.791 38.5824C119.532 39.1643 120.108 39.9118 120.46 40.7472L122.965 46.6978L127.166 48.5648C128.235 49.0397 129.132 49.8237 129.719 50.7949C130.307 51.7661 130.55 52.8702 130.413 53.9356L130.111 56.2813ZM104.254 51.0919C103.429 50.9421 102.599 51.1041 101.946 51.5422C101.292 51.9803 100.869 52.6586 100.77 53.4279C100.671 54.1972 100.904 54.9945 101.417 55.6444C101.93 56.2943 102.682 56.7435 103.507 56.8933C104.332 57.043 105.162 56.8811 105.816 56.443C106.469 56.0049 106.892 55.3266 106.991 54.5573C107.09 53.788 106.857 52.9907 106.344 52.3408C105.831 51.6909 105.079 51.2417 104.254 51.0919ZM122.916 54.4802C122.091 54.3304 121.26 54.4924 120.607 54.9305C119.954 55.3685 119.531 56.0468 119.432 56.8161C119.333 57.5855 119.565 58.3828 120.079 59.0326C120.592 59.6825 121.344 60.1318 122.169 60.2815C122.993 60.4313 123.824 60.2693 124.477 59.8313C125.131 59.3932 125.553 58.7149 125.652 57.9456C125.752 57.1763 125.519 56.379 125.006 55.7291C124.492 55.0792 123.741 54.63 122.916 54.4802Z"/>
</mask>
<path d="M105.78 39.5462L103.924 43.1158L110.434 44.2979L111.182 38.4966L108.988 38.0983C108.335 37.9793 107.673 38.0552 107.097 38.3151C106.522 38.575 106.061 39.0057 105.78 39.5462ZM102.986 44.9246L102.975 44.9424L102.407 44.9699L102.147 44.982C101.454 45.0168 100.809 45.2708 100.317 45.7035C99.8243 46.1362 99.5116 46.7228 99.4287 47.3699L99.0082 50.6342C98.9683 50.9436 99.0347 51.2525 99.1847 51.5211C99.686 50.5877 100.511 49.8582 101.534 49.4446C102.556 49.0311 103.719 48.9564 104.843 49.2321C105.968 49.5078 106.992 50.1185 107.759 50.9706C108.525 51.8226 108.991 52.8687 109.085 53.9481L117.587 55.4916C117.947 54.4936 118.655 53.6593 119.601 53.117C120.547 52.5748 121.679 52.3548 122.822 52.4909C123.966 52.627 125.057 53.1116 125.929 53.8701C126.8 54.6286 127.404 55.619 127.646 56.6886C127.862 56.478 127.999 56.2041 128.037 55.9048L128.339 53.5591C128.422 52.9197 128.276 52.257 127.923 51.674C127.571 51.0911 127.032 50.6206 126.391 50.3357L121.973 48.372L102.984 44.9242L102.986 44.9246ZM120.539 46.1325L118.525 41.3576C118.314 40.8567 117.969 40.4085 117.525 40.0593C117.081 39.7101 116.555 39.4727 116.001 39.3715L113.255 38.8731L112.508 44.6744L120.539 46.1325ZM130.111 56.2813C130.027 56.9301 129.746 57.5289 129.299 58.0065C128.853 58.484 128.261 58.8201 127.593 58.9747C127.281 60.076 126.557 61.0089 125.549 61.6082C124.541 62.2075 123.314 62.4344 122.085 62.2488C120.857 62.0632 119.706 61.477 118.837 60.5942C117.968 59.7113 117.437 58.5887 117.338 57.4254L108.836 55.8818C108.449 56.9568 107.659 57.8396 106.607 58.3737C105.556 58.9079 104.31 59.0589 103.091 58.8001C101.872 58.5413 100.758 57.8893 99.947 56.9598C99.1358 56.0302 98.6796 54.883 98.6593 53.7214C98.0612 53.337 97.5807 52.8061 97.2749 52.192C96.9692 51.5779 96.8511 50.9065 96.9347 50.2577L97.3552 46.9935C97.4875 45.9657 97.9676 45.0284 98.7258 44.3177C99.4839 43.607 100.481 43.1598 101.571 43.041L103.893 38.5763C104.361 37.6763 105.129 36.9591 106.088 36.5262C107.048 36.0933 108.149 35.9668 109.237 36.1645L116.248 37.4374C117.172 37.6051 118.05 38.0004 118.791 38.5824C119.532 39.1643 120.108 39.9118 120.46 40.7472L122.965 46.6978L127.166 48.5648C128.235 49.0397 129.132 49.8237 129.719 50.7949C130.307 51.7661 130.55 52.8702 130.413 53.9356L130.111 56.2813ZM104.254 51.0919C103.429 50.9421 102.599 51.1041 101.946 51.5422C101.292 51.9803 100.869 52.6586 100.77 53.4279C100.671 54.1972 100.904 54.9945 101.417 55.6444C101.93 56.2943 102.682 56.7435 103.507 56.8933C104.332 57.043 105.162 56.8811 105.816 56.443C106.469 56.0049 106.892 55.3266 106.991 54.5573C107.09 53.788 106.857 52.9907 106.344 52.3408C105.831 51.6909 105.079 51.2417 104.254 51.0919ZM122.916 54.4802C122.091 54.3304 121.26 54.4924 120.607 54.9305C119.954 55.3685 119.531 56.0468 119.432 56.8161C119.333 57.5855 119.565 58.3828 120.079 59.0326C120.592 59.6825 121.344 60.1318 122.169 60.2815C122.993 60.4313 123.824 60.2693 124.477 59.8313C125.131 59.3932 125.553 58.7149 125.652 57.9456C125.752 57.1763 125.519 56.379 125.006 55.7291C124.492 55.0792 123.741 54.63 122.916 54.4802Z" fill="black"/>
<path d="M105.78 39.5462L110.173 42.0676L110.173 42.0665L105.78 39.5462ZM103.924 43.1158L99.5306 40.5944L96.3018 46.8039L103.285 48.0719L103.924 43.1158ZM110.434 44.2979L109.796 49.254L114.698 50.144L115.336 45.1879L110.434 44.2979ZM111.182 38.4966L116.083 39.3866L116.722 34.4305L111.82 33.5405L111.182 38.4966ZM108.988 38.0983L108.347 43.0539L108.35 43.0543L108.988 38.0983ZM102.986 44.9246L107.229 47.7128L111.093 41.3245L103.624 39.9686L102.986 44.9246ZM102.975 44.9424L103.447 49.9721L105.936 49.8517L107.219 47.7306L102.975 44.9424ZM102.407 44.9699L102.869 50.0001L102.879 49.9996L102.407 44.9699ZM102.147 44.982L101.685 39.9519L101.676 39.9523L101.667 39.9527L102.147 44.982ZM99.4287 47.3699L104.33 48.2599L104.331 48.2569L99.4287 47.3699ZM99.1847 51.5211L94.9162 53.8483L99.3843 61.8511L103.548 54.0989L99.1847 51.5211ZM109.085 53.9481L104.162 54.1533L104.514 58.19L108.447 58.9041L109.085 53.9481ZM117.587 55.4916L116.948 60.4477L120.887 61.1629L122.236 57.4272L117.587 55.4916ZM127.646 56.6886L122.831 57.5926L124.852 66.527L131.147 60.4111L127.646 56.6886ZM128.037 55.9048L123.136 55.0148L123.134 55.0231L128.037 55.9048ZM128.339 53.5591L123.438 52.6673L123.438 52.6691L128.339 53.5591ZM126.391 50.3357L124.6 54.9357L124.601 54.9364L126.391 50.3357ZM121.973 48.372L123.764 43.772L123.206 43.5238L122.612 43.4159L121.973 48.372ZM120.539 46.1325L119.9 51.0886L128.579 52.6644L125.066 44.3358L120.539 46.1325ZM118.525 41.3576L113.995 43.1505L113.997 43.1543L118.525 41.3576ZM116.001 39.3715L116.643 34.4163L116.639 34.4155L116.001 39.3715ZM113.255 38.8731L113.894 33.917L108.992 33.027L108.353 37.9831L113.255 38.8731ZM112.508 44.6744L107.606 43.7844L106.968 48.7405L111.869 49.6305L112.508 44.6744ZM130.111 56.2813L125.209 55.3913L125.209 55.3918L130.111 56.2813ZM127.593 58.9747L126.278 54.0619L123.598 54.6828L122.838 57.3669L127.593 58.9747ZM117.338 57.4254L122.262 57.2301L121.917 53.1849L117.976 52.4693L117.338 57.4254ZM108.836 55.8818L109.475 50.9258L105.534 50.2103L104.186 53.9481L108.836 55.8818ZM98.6593 53.7214L103.602 53.8743L103.552 51.0432L101.151 49.4996L98.6593 53.7214ZM96.9347 50.2577L101.836 51.1482L101.836 51.1477L96.9347 50.2577ZM97.3552 46.9935L102.257 47.8834L102.257 47.8832L97.3552 46.9935ZM101.571 43.041L102.33 48.0482L104.812 47.7778L105.964 45.5624L101.571 43.041ZM103.893 38.5763L99.5004 36.0541L99.4999 36.0549L103.893 38.5763ZM109.237 36.1645L108.598 41.1204L108.599 41.1206L109.237 36.1645ZM116.248 37.4374L115.609 42.3934L115.61 42.3936L116.248 37.4374ZM120.46 40.7472L124.989 38.9536L124.988 38.9528L120.46 40.7472ZM122.965 46.6978L118.437 48.4914L119.26 50.4469L121.175 51.298L122.965 46.6978ZM127.166 48.5648L125.376 53.165L125.376 53.165L127.166 48.5648ZM130.413 53.9356L125.511 53.0448L125.511 53.0456L130.413 53.9356ZM104.254 51.0919L104.893 46.1358L104.254 51.0919ZM103.507 56.8933L102.869 61.8493L103.507 56.8933ZM122.916 54.4802L123.554 49.5241L122.916 54.4802ZM119.432 56.8161L114.53 55.9262L119.432 56.8161ZM122.169 60.2815L121.53 65.2376L122.169 60.2815ZM125.652 57.9456L130.554 58.8356L125.652 57.9456ZM101.387 37.0248L99.5306 40.5944L108.317 45.6372L110.173 42.0676L101.387 37.0248ZM103.285 48.0719L109.796 49.254L111.073 39.3419L104.562 38.1598L103.285 48.0719ZM115.336 45.1879L116.083 39.3866L106.28 37.6066L105.533 43.408L115.336 45.1879ZM111.82 33.5405L109.626 33.1422L108.35 43.0543L110.543 43.4526L111.82 33.5405ZM109.629 33.1427C108.037 32.8527 106.39 33.0294 104.916 33.6948L109.279 42.9353C108.956 43.081 108.633 43.1059 108.347 43.0539L109.629 33.1427ZM104.916 33.6948C103.437 34.3624 102.176 35.505 101.386 37.026L110.173 42.0665C109.945 42.5065 109.606 42.7876 109.279 42.9353L104.916 33.6948ZM98.7429 42.1365L98.7321 42.1543L107.219 47.7306L107.229 47.7128L98.7429 42.1365ZM102.504 39.9127L101.936 39.9402L102.879 49.9996L103.447 49.9721L102.504 39.9127ZM101.946 39.9398L101.685 39.9519L102.609 50.0122L102.869 50.0001L101.946 39.9398ZM101.667 39.9527C99.9631 40.0383 98.3049 40.6651 96.9866 41.8233L103.647 49.5837C103.314 49.8764 102.944 49.9954 102.627 50.0113L101.667 39.9527ZM96.9866 41.8233C95.6603 42.9885 94.7652 44.6216 94.5265 46.4829L104.331 48.2569C104.258 48.8239 103.988 49.2839 103.647 49.5837L96.9866 41.8233ZM94.5269 46.4799L94.1064 49.7442L103.91 51.5242L104.33 48.2599L94.5269 46.4799ZM94.1064 49.7442C93.9198 51.1932 94.236 52.6301 94.9162 53.8483L103.453 49.1939C103.833 49.8749 104.017 50.694 103.91 51.5242L94.1064 49.7442ZM103.548 54.0989C103.527 54.1371 103.509 54.1551 103.505 54.1586C103.501 54.1618 103.512 54.1507 103.546 54.1371L99.5209 44.7522C97.5461 45.551 95.867 46.9966 94.8214 48.9434L103.548 54.0989ZM103.546 54.1371C103.621 54.1068 103.753 54.0868 103.908 54.1248L105.779 44.3393C103.685 43.826 101.491 43.9554 99.5209 44.7522L103.546 54.1371ZM103.908 54.1248C104.063 54.1628 104.155 54.2369 104.188 54.2736L111.329 47.6675C109.829 46.0002 107.873 44.8528 105.779 44.3393L103.908 54.1248ZM104.188 54.2736C104.202 54.2893 104.198 54.2898 104.189 54.269C104.18 54.2477 104.166 54.2084 104.162 54.1533L114.009 53.7428C113.81 51.4669 112.834 49.3406 111.329 47.6675L104.188 54.2736ZM108.447 58.9041L116.948 60.4477L118.225 50.5355L109.724 48.992L108.447 58.9041ZM122.236 57.4272C122.218 57.4784 122.195 57.5117 122.18 57.5289C122.166 57.5458 122.162 57.5442 122.18 57.5343L117.022 48.6998C115.163 49.7649 113.697 51.4511 112.937 53.556L122.236 57.4272ZM122.18 57.5343C122.22 57.5113 122.326 57.4732 122.483 57.4919L123.161 47.4899C121.031 47.2364 118.874 47.6384 117.022 48.6998L122.18 57.5343ZM122.483 57.4919C122.64 57.5106 122.761 57.5764 122.824 57.6316L129.033 50.1086C127.354 48.6468 125.291 47.7433 123.161 47.4899L122.483 57.4919ZM122.824 57.6316C122.853 57.6564 122.861 57.6708 122.858 57.6661C122.855 57.661 122.841 57.6369 122.831 57.5926L132.46 55.7846C131.955 53.5528 130.718 51.5743 129.033 50.1086L122.824 57.6316ZM131.147 60.4111C132.109 59.4756 132.759 58.2131 132.94 56.7866L123.134 55.0231C123.24 54.1951 123.615 53.4805 124.145 52.9662L131.147 60.4111ZM132.939 56.7948L133.241 54.4491L123.438 52.6691L123.136 55.0148L132.939 56.7948ZM133.241 54.451C133.479 52.6122 133.048 50.7576 132.098 49.186L123.748 54.162C123.503 53.7564 123.366 53.2272 123.438 52.6673L133.241 54.451ZM132.098 49.186C131.154 47.6237 129.758 46.4359 128.18 45.7351L124.601 54.9364C124.306 54.8053 123.988 54.5585 123.748 54.162L132.098 49.186ZM128.182 45.7358L123.764 43.772L120.182 52.972L124.6 54.9357L128.182 45.7358ZM122.612 43.4159L103.622 39.9682L102.346 49.8803L121.335 53.3281L122.612 43.4159ZM102.346 49.8803L102.348 49.8807L103.624 39.9686L103.622 39.9682L102.346 49.8803ZM125.066 44.3358L123.052 39.5609L113.997 43.1543L116.011 47.9292L125.066 44.3358ZM123.054 39.5647C122.475 38.19 121.552 37.0156 120.427 36.13L114.623 43.9886C114.385 43.8014 114.152 43.5235 113.995 43.1505L123.054 39.5647ZM120.427 36.13C119.303 35.2458 117.997 34.6633 116.643 34.4163L115.358 44.3268C115.113 44.282 114.859 44.1745 114.623 43.9886L120.427 36.13ZM116.639 34.4155L113.894 33.917L112.617 43.8291L115.362 44.3276L116.639 34.4155ZM108.353 37.9831L107.606 43.7844L117.41 45.5644L118.157 39.7631L108.353 37.9831ZM111.869 49.6305L119.9 51.0886L121.177 41.1765L113.146 39.7184L111.869 49.6305ZM125.209 55.3918C125.259 55.0004 125.427 54.6734 125.642 54.4433L132.956 61.5697C134.064 60.3844 134.795 58.8598 135.013 57.1708L125.209 55.3918ZM125.642 54.4433C125.853 54.2177 126.086 54.1065 126.278 54.0619L128.908 63.8876C130.435 63.5338 131.853 62.7503 132.956 61.5697L125.642 54.4433ZM122.838 57.3669C122.855 57.3066 122.88 57.2649 122.898 57.2415C122.916 57.2186 122.923 57.2181 122.907 57.2279L128.191 65.9885C130.176 64.8086 131.688 62.9154 132.348 60.5826L122.838 57.3669ZM122.907 57.2279C122.867 57.2518 122.75 57.2945 122.579 57.2686L121.592 67.229C123.878 67.5743 126.215 67.1631 128.191 65.9885L122.907 57.2279ZM122.579 57.2686C122.407 57.2426 122.29 57.1643 122.242 57.1153L115.432 64.073C117.122 65.7898 119.307 66.8838 121.592 67.229L122.579 57.2686ZM122.242 57.1153C122.221 57.0943 122.223 57.0893 122.232 57.1088C122.242 57.1288 122.257 57.1702 122.262 57.2301L112.413 57.6207C112.623 60.0757 113.735 62.3495 115.432 64.073L122.242 57.1153ZM117.976 52.4693L109.475 50.9258L108.198 60.8379L116.699 62.3814L117.976 52.4693ZM104.186 53.9481C104.206 53.8928 104.231 53.8586 104.245 53.8428C104.258 53.8275 104.259 53.8329 104.234 53.8456L108.981 62.9018C111.034 61.859 112.668 60.084 113.486 57.8156L104.186 53.9481ZM104.234 53.8456C104.175 53.8752 104.045 53.9087 103.874 53.8725L102.308 63.7277C104.576 64.2091 106.936 63.9405 108.981 62.9018L104.234 53.8456ZM103.874 53.8725C103.704 53.8364 103.604 53.7544 103.571 53.7172L96.3228 60.2023C97.9128 62.0243 100.04 63.2462 102.308 63.7277L103.874 53.8725ZM103.571 53.7172C103.558 53.7021 103.565 53.7052 103.576 53.7333C103.587 53.7621 103.601 53.8107 103.602 53.8743L93.717 53.5685C93.76 56.0291 94.7257 58.3721 96.3228 60.2023L103.571 53.7172ZM101.151 49.4996C101.323 49.6104 101.517 49.7992 101.662 50.0893L92.888 54.2947C93.644 55.813 94.7995 57.0636 96.168 57.9432L101.151 49.4996ZM101.662 50.0893C101.809 50.3853 101.887 50.7568 101.836 51.1482L92.033 49.3672C91.8153 51.0562 92.1291 52.7705 92.888 54.2947L101.662 50.0893ZM101.836 51.1477L102.257 47.8834L92.4534 46.1035L92.0329 49.3677L101.836 51.1477ZM102.257 47.8832C102.249 47.9423 102.232 47.9931 102.212 48.0322C102.192 48.0709 102.173 48.0911 102.167 48.0974L95.2849 40.538C93.7511 41.9758 92.7345 43.9202 92.4534 46.1037L102.257 47.8832ZM102.167 48.0974C102.156 48.1076 102.201 48.0622 102.33 48.0482L100.813 38.0339C98.7602 38.2574 96.8121 39.1064 95.2849 40.538L102.167 48.0974ZM105.964 45.5624L108.286 41.0977L99.4999 36.0549L97.1784 40.5196L105.964 45.5624ZM108.286 41.0986C108.266 41.1366 108.247 41.1561 108.241 41.1619C108.235 41.1674 108.242 41.1589 108.27 41.1465L103.907 31.9059C102.045 32.7462 100.478 34.1746 99.5004 36.0541L108.286 41.0986ZM108.27 41.1465C108.331 41.1189 108.448 41.0932 108.598 41.1204L109.876 31.2086C107.85 30.8403 105.764 31.0678 103.907 31.9059L108.27 41.1465ZM108.599 41.1206L115.609 42.3934L116.886 32.4813L109.875 31.2084L108.599 41.1206ZM115.61 42.3936C115.735 42.4162 115.832 42.4669 115.892 42.5139L121.69 34.6508C120.269 33.5338 118.61 32.7939 116.885 32.4811L115.61 42.3936ZM115.892 42.5139C115.95 42.5597 115.948 42.5806 115.931 42.5416L124.988 38.9528C124.268 37.2429 123.113 35.769 121.69 34.6508L115.892 42.5139ZM115.931 42.5408L118.437 48.4914L127.494 44.9042L124.989 38.9536L115.931 42.5408ZM121.175 51.298L125.376 53.165L128.957 43.9647L124.756 42.0977L121.175 51.298ZM125.376 53.165C125.508 53.2237 125.549 53.2905 125.544 53.2827L133.895 48.3071C132.716 46.3568 130.962 44.8557 128.957 43.9647L125.376 53.165ZM125.544 53.2827C125.541 53.2768 125.527 53.252 125.518 53.2075C125.508 53.1625 125.503 53.1061 125.511 53.0448L135.315 54.8264C135.607 52.5621 135.079 50.2666 133.895 48.3071L125.544 53.2827ZM125.511 53.0456L125.209 55.3913L135.013 57.1713L135.315 54.8256L125.511 53.0456ZM104.893 46.1358C102.89 45.7722 100.802 46.1487 99.0913 47.2958L104.8 55.7886C104.396 56.0595 103.969 56.1121 103.616 56.048L104.893 46.1358ZM99.0913 47.2958C97.3657 48.4529 96.1544 50.319 95.8686 52.5379L105.672 54.3179C105.584 54.9981 105.219 55.5077 104.8 55.7886L99.0913 47.2958ZM95.8686 52.5379C95.5828 54.7567 96.2689 56.9674 97.6244 58.6839L105.21 52.6048C105.539 53.0215 105.76 53.6376 105.672 54.3179L95.8686 52.5379ZM97.6244 58.6839C98.9682 60.3856 100.866 61.4857 102.869 61.8493L104.145 51.9372C104.498 52.0013 104.892 52.2029 105.21 52.6048L97.6244 58.6839ZM102.869 61.8493C104.871 62.213 106.959 61.8364 108.67 60.6894L102.961 52.1966C103.366 51.9257 103.792 51.8731 104.145 51.9372L102.869 61.8493ZM108.67 60.6894C110.396 59.5323 111.607 57.6661 111.893 55.4473L102.089 53.6673C102.177 52.9871 102.543 52.4775 102.961 52.1966L108.67 60.6894ZM111.893 55.4473C112.178 53.2284 111.492 51.0178 110.137 49.3013L102.551 55.3803C102.222 54.9636 102.001 54.3475 102.089 53.6673L111.893 55.4473ZM110.137 49.3013C108.793 47.5996 106.896 46.4995 104.893 46.1358L103.616 56.048C103.263 55.9839 102.869 55.7822 102.551 55.3803L110.137 49.3013ZM123.554 49.5241C121.551 49.1605 119.464 49.537 117.753 50.6841L123.461 59.1768C123.057 59.4477 122.63 59.5003 122.277 59.4362L123.554 49.5241ZM117.753 50.6841C116.027 51.8411 114.816 53.7073 114.53 55.9262L124.334 57.7061C124.246 58.3864 123.88 58.8959 123.461 59.1768L117.753 50.6841ZM114.53 55.9262C114.244 58.145 114.93 60.3557 116.286 62.0722L123.871 55.9931C124.2 56.4098 124.421 57.0259 124.334 57.7061L114.53 55.9262ZM116.286 62.0722C117.63 63.7738 119.527 64.8739 121.53 65.2376L122.807 55.3255C123.16 55.3896 123.554 55.5912 123.871 55.9931L116.286 62.0722ZM121.53 65.2376C123.533 65.6012 125.621 65.2247 127.331 64.0776L121.623 55.5849C122.027 55.314 122.454 55.2614 122.807 55.3255L121.53 65.2376ZM127.331 64.0776C129.057 62.9206 130.268 61.0544 130.554 58.8356L120.751 57.0556C120.838 56.3754 121.204 55.8658 121.623 55.5849L127.331 64.0776ZM130.554 58.8356C130.84 56.6167 130.154 54.406 128.798 52.6895L121.213 58.7686C120.884 58.3519 120.663 57.7358 120.751 57.0556L130.554 58.8356ZM128.798 52.6895C127.455 50.9879 125.557 49.8878 123.554 49.5241L122.277 59.4362C121.924 59.3721 121.53 59.1705 121.213 58.7686L128.798 52.6895Z" fill="black" mask="url(#path-12-inside-1)"/>
</svg>
