<svg width="151" height="129" viewBox="0 0 151 129" fill="none" xmlns="http://www.w3.org/2000/svg">
<rect width="151" height="129" fill="#E0D24E"/>
<path fill-rule="evenodd" clip-rule="evenodd" d="M65.0617 27.0539C64.6432 26.9485 64.2006 26.9987 63.8163 27.1952C63.432 27.3917 63.1322 27.7212 62.9726 28.1222L59.3009 37.3014L50.1177 40.981C49.8645 41.0826 49.6379 41.241 49.4556 41.4441C49.2733 41.6471 49.1402 41.8893 49.0664 42.152C48.9926 42.4147 48.9801 42.6909 49.03 42.9591C49.0799 43.2274 49.1908 43.4806 49.3541 43.6992L54.7786 50.9358L51.0277 65.9391C50.9251 66.3525 50.974 66.789 51.1657 67.1693C51.3573 67.5497 51.679 67.8488 52.0723 68.0123L63.4395 72.7523L69.0776 81.2075C69.287 81.5214 69.5906 81.7606 69.9448 81.8908C70.2989 82.0209 70.6852 82.0352 71.048 81.9315L84.896 77.975C84.9199 77.9676 84.9437 77.9597 84.9672 77.9512L96.8369 73.9947C97.129 73.8972 97.3907 73.7257 97.5967 73.4968C97.8027 73.268 97.9458 72.9896 98.012 72.689L101.969 54.8844C102.042 54.5506 102.019 54.2026 101.9 53.882C101.782 53.5614 101.573 53.2817 101.3 53.0763L94.099 47.6755V38.6743C94.0985 38.3439 94.0061 38.0201 93.8321 37.7392C93.6581 37.4583 93.4094 37.2314 93.1138 37.0838L81.2441 31.149C81.1282 31.0896 81.0061 31.0432 80.8801 31.0105L65.0538 27.0539H65.0617ZM92.0534 50.5915L97.3671 54.5758L87.2264 63.0231C86.9714 63.2356 86.7809 63.5152 86.6764 63.8302L83.4321 73.5515L77.4379 69.8046C77.2394 69.6807 77.0184 69.5971 76.7876 69.5586C76.5568 69.52 76.3207 69.5273 76.0927 69.5801C75.8648 69.6328 75.6494 69.7299 75.459 69.8659C75.2685 70.0018 75.1067 70.1739 74.9828 70.3724C74.8589 70.5709 74.7753 70.7918 74.7367 71.0226C74.6982 71.2534 74.7055 71.4896 74.7582 71.7175C74.811 71.9455 74.9081 72.1609 75.044 72.3513C75.18 72.5417 75.3521 72.7035 75.5506 72.8275L80.069 75.6485L71.325 78.1491L66.1023 70.3269C65.9083 70.0364 65.6331 69.8093 65.311 69.6741L54.8538 65.3179L58.1021 52.3245H66.6048C66.8386 52.3245 67.0701 52.2785 67.2861 52.189C67.5021 52.0995 67.6984 51.9684 67.8637 51.803C68.0291 51.6377 68.1602 51.4414 68.2497 51.2254C68.3392 51.0094 68.3852 50.7779 68.3852 50.5441C68.3852 50.3102 68.3392 50.0787 68.2497 49.8627C68.1602 49.6467 68.0291 49.4504 67.8637 49.2851C67.6984 49.1198 67.5021 48.9886 67.2861 48.8991C67.0701 48.8097 66.8386 48.7636 66.6048 48.7636H57.6036L53.5956 43.4222L60.7253 40.5695L71.9778 44.3204C72.323 44.4348 72.695 44.4408 73.0437 44.3376C73.3924 44.2343 73.7012 44.0267 73.9284 43.7427L80.9434 34.975L90.542 39.7743V47.359L81.7703 50.8685C81.5297 50.9647 81.313 51.1123 81.1353 51.3009C80.9576 51.4895 80.8233 51.7146 80.7416 51.9605L78.7633 57.8954C78.6879 58.1176 78.6573 58.3526 78.673 58.5868C78.6888 58.8209 78.7507 59.0497 78.8552 59.2598C78.9597 59.47 79.1047 59.6574 79.2819 59.8113C79.4591 59.9652 79.6649 60.0826 79.8876 60.1566C80.1103 60.2307 80.3455 60.26 80.5795 60.2428C80.8136 60.2257 81.042 60.1624 81.2515 60.0567C81.461 59.951 81.6476 59.8049 81.8005 59.6268C81.9533 59.4487 82.0695 59.2422 82.1422 59.019L83.8554 53.8676L92.0495 50.5915H92.0534ZM77.331 33.7919L71.9264 40.5498L63.0241 37.5823L65.7027 30.8878L77.331 33.7919V33.7919ZM87.2225 73.4486L94.7597 70.9362L97.3671 59.2089L89.8931 65.4366L87.2225 73.4486Z" fill="black"/>
<path d="M53.762 106.142V102.488H55.76C57.182 102.488 57.812 103.172 57.812 104.324C57.812 105.44 57.182 106.142 55.76 106.142H53.762ZM60.404 104.324C60.404 102.146 58.892 100.436 55.868 100.436H51.242V113H53.762V108.176H55.868C59.108 108.176 60.404 106.232 60.404 104.324ZM61.5452 107.978C61.5452 111.092 63.5612 113.162 66.0812 113.162C67.6652 113.162 68.7992 112.406 69.3932 111.542V113H71.9312V103.028H69.3932V104.45C68.7992 103.622 67.7012 102.866 66.0992 102.866C63.5612 102.866 61.5452 104.864 61.5452 107.978ZM69.3932 108.014C69.3932 109.904 68.1332 110.948 66.7472 110.948C65.3972 110.948 64.1192 109.868 64.1192 107.978C64.1192 106.088 65.3972 105.08 66.7472 105.08C68.1332 105.08 69.3932 106.124 69.3932 108.014ZM76.9124 104.468V103.028H74.3924V117.752H76.9124V111.578C77.5244 112.388 78.6404 113.162 80.2064 113.162C82.7624 113.162 84.7604 111.092 84.7604 107.978C84.7604 104.864 82.7624 102.866 80.2064 102.866C78.6584 102.866 77.5064 103.622 76.9124 104.468ZM82.1864 107.978C82.1864 109.868 80.9084 110.948 79.5404 110.948C78.1904 110.948 76.9124 109.904 76.9124 108.014C76.9124 106.124 78.1904 105.08 79.5404 105.08C80.9084 105.08 82.1864 106.088 82.1864 107.978ZM90.8756 104.936C92.1716 104.936 93.2156 105.764 93.2516 107.078H88.5176C88.7156 105.71 89.6696 104.936 90.8756 104.936ZM95.6096 109.868H92.8916C92.5676 110.534 91.9736 111.074 90.8936 111.074C89.6336 111.074 88.6256 110.246 88.4996 108.77H95.7896C95.8436 108.446 95.8616 108.122 95.8616 107.798C95.8616 104.828 93.8276 102.866 90.9476 102.866C87.9956 102.866 85.9436 104.864 85.9436 108.014C85.9436 111.146 88.0496 113.162 90.9476 113.162C93.4136 113.162 95.0696 111.704 95.6096 109.868ZM97.701 113H100.221V99.68H97.701V113Z" fill="black"/>
<path fill-rule="evenodd" clip-rule="evenodd" d="M13 3H138V53H141V3V0H138H13H10V3V126V129H13H138H141V126V77H138V126H13V3Z" fill="black"/>
<path d="M144 81.0045C144 80.8764 143.979 80.7498 143.938 80.6341C143.897 80.5184 143.837 80.4165 143.762 80.3358L139.905 76.195C139.79 76.0689 139.646 76 139.497 76C139.348 76 139.204 76.0689 139.089 76.195L135.232 80.4815C135.101 80.627 135.018 80.8361 135.003 81.0628C134.987 81.2895 135.04 81.5152 135.149 81.6903C135.258 81.8654 135.415 81.9755 135.585 81.9964C135.754 82.0173 135.924 81.9473 136.055 81.8017L139.5 77.9696L142.946 81.6732C143.04 81.778 143.155 81.8446 143.277 81.8651C143.399 81.8855 143.522 81.859 143.633 81.7887C143.744 81.7183 143.838 81.6071 143.903 81.4681C143.968 81.3291 144.001 81.1682 144 81.0045Z" fill="black" stroke="black"/>
</svg>
