<svg width="151" height="129" viewBox="0 0 151 129" fill="none" xmlns="http://www.w3.org/2000/svg">
<rect width="151" height="129" fill="#E0D24E"/>
<path d="M42.762 107.142V103.488H44.76C46.182 103.488 46.812 104.172 46.812 105.324C46.812 106.44 46.182 107.142 44.76 107.142H42.762ZM49.404 105.324C49.404 103.146 47.892 101.436 44.868 101.436H40.242V114H42.762V109.176H44.868C48.108 109.176 49.404 107.232 49.404 105.324ZM51.1932 114H53.7132V100.68H51.1932V114ZM55.5549 108.978C55.5549 112.092 57.5709 114.162 60.0909 114.162C61.6749 114.162 62.8089 113.406 63.4029 112.542V114H65.9409V104.028H63.4029V105.45C62.8089 104.622 61.7109 103.866 60.1089 103.866C57.5709 103.866 55.5549 105.864 55.5549 108.978ZM63.4029 109.014C63.4029 110.904 62.1429 111.948 60.7569 111.948C59.4069 111.948 58.1289 110.868 58.1289 108.978C58.1289 107.088 59.4069 106.08 60.7569 106.08C62.1429 106.08 63.4029 107.124 63.4029 109.014ZM58.9209 101.526V103.326L63.0609 101.436V99.384L58.9209 101.526ZM76.1422 111.156C76.0702 107.502 70.5442 108.636 70.5442 106.818C70.5442 106.242 71.0302 105.864 71.9662 105.864C72.9562 105.864 73.5682 106.386 73.6402 107.16H76.0522C75.9082 105.18 74.4502 103.866 72.0382 103.866C69.5722 103.866 68.0962 105.198 68.0962 106.854C68.0962 110.508 73.7302 109.374 73.7302 111.156C73.7302 111.732 73.1902 112.182 72.2002 112.182C71.1922 112.182 70.4902 111.606 70.4002 110.85H67.8622C67.9702 112.704 69.7162 114.162 72.2182 114.162C74.6482 114.162 76.1422 112.866 76.1422 111.156ZM78.6068 110.904C78.6068 113.19 79.8848 114 81.7928 114H83.3768V111.876H82.2068C81.4148 111.876 81.1448 111.588 81.1448 110.922V106.098H83.3768V104.028H81.1448V101.562H78.6068V104.028H77.4188V106.098H78.6068V110.904ZM85.1893 114H87.7093V104.028H85.1893V114ZM86.4673 102.84C87.3493 102.84 88.0153 102.192 88.0153 101.364C88.0153 100.536 87.3493 99.888 86.4673 99.888C85.5673 99.888 84.9193 100.536 84.9193 101.364C84.9193 102.192 85.5673 102.84 86.4673 102.84ZM89.551 109.014C89.551 112.146 91.603 114.162 94.483 114.162C96.967 114.162 98.641 112.758 99.181 110.634H96.463C96.157 111.534 95.509 112.002 94.465 112.002C93.061 112.002 92.125 110.958 92.125 109.014C92.125 107.07 93.061 106.008 94.465 106.008C95.509 106.008 96.175 106.548 96.463 107.394H99.181C98.641 105.162 96.967 103.866 94.483 103.866C91.603 103.866 89.551 105.882 89.551 109.014ZM110.657 109.014C110.657 105.864 108.407 103.866 105.527 103.866C102.647 103.866 100.397 105.864 100.397 109.014C100.397 112.146 102.575 114.162 105.455 114.162C108.353 114.162 110.657 112.146 110.657 109.014ZM102.953 109.014C102.953 107.016 104.159 106.062 105.491 106.062C106.823 106.062 108.065 107.016 108.065 109.014C108.065 110.994 106.787 111.966 105.455 111.966C104.105 111.966 102.953 110.994 102.953 109.014Z" fill="black"/>
<path d="M77.5 32.6V31.7V26.8419L74.0797 30.2919L71.2807 33.1152L71.5419 32.5882L71.75 32.1685V31.7V28.8V26.8H69.75H68.875V25H82.6875C83.2952 25 83.8815 25.2433 84.3166 25.6822C84.7522 26.1216 85 26.7212 85 27.35V28.3315L82.8842 32.6H77.5ZM66.6497 58.6984L76.7099 39.5H83.2732C84.5189 40.8921 85 42.1605 85 43.3V79H66V60.7C66 60.3575 66.147 59.7446 66.6497 58.6984Z" stroke="black" stroke-width="4"/>
<path fill-rule="evenodd" clip-rule="evenodd" d="M138 3H13V53H10V3V0H13H138H141V3V53H138V3ZM138 77V126H13V77H10V126V129H13H138H141V126V77H138Z" fill="black"/>
<path d="M144 81.0045C144 80.8764 143.979 80.7498 143.938 80.6341C143.897 80.5184 143.837 80.4165 143.762 80.3358L139.905 76.195C139.79 76.0689 139.646 76 139.497 76C139.348 76 139.204 76.0689 139.089 76.195L135.232 80.4815C135.101 80.627 135.018 80.8361 135.003 81.0628C134.987 81.2895 135.04 81.5152 135.149 81.6903C135.258 81.8654 135.415 81.9755 135.585 81.9964C135.754 82.0173 135.924 81.9473 136.055 81.8017L139.5 77.9696L142.946 81.6732C143.04 81.778 143.155 81.8446 143.277 81.8651C143.399 81.8855 143.522 81.859 143.633 81.7887C143.744 81.7183 143.838 81.6071 143.903 81.4681C143.968 81.3291 144.001 81.1682 144 81.0045Z" fill="black" stroke="black"/>
<path d="M16 48.9955C16.0003 49.1236 15.9791 49.2502 15.9379 49.3659C15.8968 49.4816 15.8367 49.5835 15.7621 49.6642L11.9053 53.805C11.7903 53.9311 11.6461 54 11.4972 54C11.3483 54 11.204 53.9311 11.089 53.805L7.23221 49.5185C7.10094 49.373 7.01839 49.1639 7.00272 48.9372C6.98705 48.7105 7.03954 48.4848 7.14865 48.3097C7.25776 48.1346 7.41454 48.0245 7.58451 48.0036C7.75449 47.9827 7.92372 48.0527 8.05499 48.1983L11.5004 52.0304L14.9458 48.3268C15.0401 48.222 15.155 48.1554 15.2769 48.1349C15.3987 48.1145 15.5224 48.141 15.6333 48.2113C15.7442 48.2817 15.8377 48.3929 15.9026 48.5319C15.9676 48.6709 16.0014 48.8318 16 48.9955Z" fill="black" stroke="black"/>
</svg>
